<svg xmlns="http://www.w3.org/2000/svg" version="1.1" xmlns:xlink="http://www.w3.org/1999/xlink" width="1000" height="1000"><g clip-path="url(#SvgjsClipPath1003)"><rect width="1000" height="1000" fill="#ffffff"></rect><g transform="matrix(3.5,0,0,3.5,150,150)"><svg xmlns="http://www.w3.org/2000/svg" version="1.1" xmlns:xlink="http://www.w3.org/1999/xlink" width="200" height="200"><svg xmlns="http://www.w3.org/2000/svg" version="1.1" xmlns:xlink="http://www.w3.org/1999/xlink" viewBox="0 0 200 200"><rect width="200" height="200" fill="url('#gradient')"></rect><defs><linearGradient id="gradient" gradientTransform="rotate(45 0.5 0.5)"><stop offset="0%" stop-color="#09111f"></stop><stop offset="100%" stop-color="#3f79ff"></stop></linearGradient><clipPath id="SvgjsClipPath1003"><rect width="1000" height="1000" x="0" y="0" rx="350" ry="350"></rect></clipPath></defs><g><g fill="#fcbf5b" transform="matrix(2.745308310991957,0,0,2.745308310991957,7.055165431135137,114.87949305373286)" stroke="#ca6678" stroke-width="0"><path d="M6.85 0L1.07 0L1.07-14.22L6.18-14.22Q8.93-14.22 10.36-13.21Q11.79-12.21 11.79-10.29L11.79-10.29Q11.79-9.19 11.28-8.41Q10.77-7.63 9.79-7.26L9.79-7.26Q10.90-6.96 11.49-6.16Q12.09-5.36 12.09-4.21L12.09-4.21Q12.09-2.12 10.77-1.07Q9.44-0.02 6.85 0L6.85 0ZM6.90-6.04L4.50-6.04L4.50-2.64L6.75-2.64Q7.68-2.64 8.17-3.06Q8.67-3.49 8.67-4.26L8.67-4.26Q8.67-6.04 6.90-6.04L6.90-6.04ZM4.50-11.57L4.50-8.29L6.29-8.29Q7.41-8.30 7.89-8.70Q8.37-9.10 8.37-9.88L8.37-9.88Q8.37-10.78 7.85-11.18Q7.33-11.57 6.18-11.57L6.18-11.57L4.50-11.57ZM17.29-15L17.29 0L13.99 0L13.99-15L17.29-15ZM28.56 0L25.27 0Q25.10-0.32 24.96-0.95L24.96-0.95Q24.05 0.20 22.42 0.20L22.42 0.20Q20.93 0.20 19.88-0.71Q18.84-1.61 18.84-2.98L18.84-2.98Q18.84-4.70 20.11-5.58Q21.38-6.46 23.80-6.46L23.80-6.46L24.81-6.46L24.81-7.01Q24.81-8.47 23.55-8.47L23.55-8.47Q22.38-8.47 22.38-7.31L22.38-7.31L19.09-7.31Q19.09-8.85 20.40-9.80Q21.70-10.76 23.72-10.76Q25.74-10.76 26.91-9.78Q28.09-8.79 28.12-7.07L28.12-7.07L28.12-2.39Q28.13-0.94 28.56-0.17L28.56-0.17L28.56 0ZM23.21-2.15L23.21-2.15Q23.83-2.15 24.23-2.41Q24.64-2.68 24.81-3.01L24.81-3.01L24.81-4.70L23.86-4.70Q22.14-4.70 22.14-3.15L22.14-3.15Q22.14-2.71 22.44-2.43Q22.74-2.15 23.21-2.15ZM38.53-8.79L33.82-2.54L38.63-2.54L38.63 0L29.66 0L29.66-1.84L34.35-8.03L29.86-8.03L29.86-10.57L38.53-10.57L38.53-8.79ZM43.70-10.57L43.70 0L40.40 0L40.40-10.57L43.70-10.57ZM40.21-13.29L40.21-13.29Q40.21-13.99 40.71-14.44Q41.22-14.89 42.03-14.89Q42.84-14.89 43.35-14.44Q43.86-13.99 43.86-13.29Q43.86-12.59 43.35-12.14Q42.84-11.69 42.03-11.69Q41.22-11.69 40.71-12.14Q40.21-12.59 40.21-13.29ZM45.66-10.57L48.75-10.57L48.86-9.33Q49.95-10.76 51.88-10.76L51.88-10.76Q53.53-10.76 54.34-9.78Q55.16-8.79 55.19-6.81L55.19-6.81L55.19 0L51.88 0L51.88-6.67Q51.88-7.47 51.56-7.85Q51.24-8.22 50.39-8.22L50.39-8.22Q49.42-8.22 48.96-7.46L48.96-7.46L48.96 0L45.66 0L45.66-10.57ZM56.62-5.24L56.62-5.36Q56.62-6.96 57.15-8.19Q57.68-9.42 58.66-10.09Q59.65-10.76 60.96-10.76L60.96-10.76Q62.61-10.76 63.54-9.65L63.54-9.65L63.65-10.57L66.64-10.57L66.64-0.40Q66.64 1.00 65.99 2.03Q65.34 3.06 64.11 3.61Q62.88 4.16 61.26 4.16L61.26 4.16Q60.10 4.16 59.01 3.72Q57.92 3.28 57.34 2.58L57.34 2.58L58.72 0.64Q59.64 1.73 61.14 1.73L61.14 1.73Q63.33 1.73 63.33-0.52L63.33-0.52L63.33-0.85Q62.38 0.20 60.94 0.20L60.94 0.20Q59.00 0.20 57.81-1.28Q56.62-2.76 56.62-5.24L56.62-5.24ZM59.92-5.16L59.92-5.16Q59.92-3.86 60.41-3.10Q60.90-2.34 61.78-2.34L61.78-2.34Q62.84-2.34 63.33-3.06L63.33-3.06L63.33-7.50Q62.85-8.22 61.80-8.22L61.80-8.22Q60.92-8.22 60.42-7.44Q59.92-6.65 59.92-5.16Z"></path></g></g></svg></svg></g></g></svg>